<svg version="1.1" xmlns="http://www.w3.org/2000/svg" viewBox="0 0 994.8011535737633 1783.548050666223" width="2984.40346072129" height="5350.644151998669">
  <!-- svg-source:excalidraw -->
  
  <defs>
    <style class="style-fonts">
      @font-face {
        font-family: "Virgil";
        src: url("https://excalidraw.com/Virgil.woff2");
      }
      @font-face {
        font-family: "Cascadia";
        src: url("https://excalidraw.com/Cascadia.woff2");
      }
      @font-face {
        font-family: "Assistant";
        src: url("https://excalidraw.com/Assistant-Regular.woff2");
      }
    </style>
    
  </defs>
  <rect x="0" y="0" width="994.8011535737633" height="1783.548050666223" fill="#ffffff"></rect><g stroke-linecap="round" transform="translate(32.96942138671875 206.9298095703125) rotate(0 87.93133544921875 31.675186157226562)"><path d="M15.84 0 C55.12 -0.83, 93 1.72, 160.03 0 M15.84 0 C69.19 1.2, 124.72 1.36, 160.03 0 M160.03 0 C168.84 0.97, 174.83 6.64, 175.86 15.84 M160.03 0 C171.93 -1.64, 173.96 6.82, 175.86 15.84 M175.86 15.84 C174.32 26.75, 177.38 35.87, 175.86 47.51 M175.86 15.84 C176.92 28.08, 176.74 40.96, 175.86 47.51 M175.86 47.51 C176.37 59.09, 171.25 65, 160.03 63.35 M175.86 47.51 C175.5 56.65, 171.34 64.33, 160.03 63.35 M160.03 63.35 C124.02 62.89, 86.19 61.42, 15.84 63.35 M160.03 63.35 C130.56 64.2, 100.1 64.45, 15.84 63.35 M15.84 63.35 C3.34 63.72, -1.04 57.55, 0 47.51 M15.84 63.35 C3.99 63.82, 1.27 60.21, 0 47.51 M0 47.51 C0.22 41.04, 1.02 32.08, 0 15.84 M0 47.51 C0.52 38.05, -0.02 28.6, 0 15.84 M0 15.84 C1.73 7.27, 3.64 0.31, 15.84 0 M0 15.84 C-0.99 5.58, 5.43 -0.91, 15.84 0" stroke="#1e1e1e" stroke-width="2" fill="none"></path></g><g transform="translate(42.22991943359375 225.40142822265625) rotate(0 73.369140625 11.5)"><text x="0" y="0" font-family="Helvetica, Segoe UI Emoji" font-size="20px" fill="#1e1e1e" text-anchor="start" style="white-space: pre;" direction="ltr" dominant-baseline="text-before-edge">graphQL service</text></g><g stroke-linecap="round" transform="translate(278.8433532714844 66.7943115234375) rotate(0 109.9141845703125 225.8997344970703)"><path d="M32 0 C89.74 -1.17, 146.52 -2.16, 187.83 0 M32 0 C92.79 1.27, 153.4 0.39, 187.83 0 M187.83 0 C208.66 1.96, 219.98 12.58, 219.83 32 M187.83 0 C208.34 1.27, 219.01 9.46, 219.83 32 M219.83 32 C218.51 185.77, 219.83 340.45, 219.83 419.8 M219.83 32 C221.58 162.68, 221.7 293.47, 219.83 419.8 M219.83 419.8 C221.55 442.2, 209.85 450.81, 187.83 451.8 M219.83 419.8 C220.78 439.31, 209.59 452.06, 187.83 451.8 M187.83 451.8 C135.21 452.07, 84.84 449.64, 32 451.8 M187.83 451.8 C142.73 451.5, 98.12 451.57, 32 451.8 M32 451.8 C12.6 452.61, -1.37 440.65, 0 419.8 M32 451.8 C9.18 450.45, -1.33 440.74, 0 419.8 M0 419.8 C-1.19 292.19, -0.63 165.86, 0 32 M0 419.8 C0.93 274.51, 0.85 128.32, 0 32 M0 32 C-0.67 11.35, 9.76 1.14, 32 0 M0 32 C-2.1 9.62, 10.98 -0.17, 32 0" stroke="#1e1e1e" stroke-width="2" fill="none"></path></g><g stroke-linecap="round" transform="translate(305.5943908691406 195.40045166015625) rotate(0 77.74618530273438 34)"><path d="M17 0 C49.1 0.56, 78.04 1.04, 138.49 0 M17 0 C52.65 -1.85, 87.18 -0.19, 138.49 0 M138.49 0 C150.42 1.41, 157.15 3.93, 155.49 17 M138.49 0 C151.46 -1.3, 156.32 6.66, 155.49 17 M155.49 17 C154.76 28.51, 155.19 36.97, 155.49 51 M155.49 17 C156.04 30.64, 156.13 43.79, 155.49 51 M155.49 51 C156.85 62.69, 150.63 69.68, 138.49 68 M155.49 51 C154.88 61.67, 151.97 66.5, 138.49 68 M138.49 68 C108.31 67.85, 79.55 67.31, 17 68 M138.49 68 C101.89 67.94, 66.64 68.16, 17 68 M17 68 C6.3 67.36, -0.51 62.98, 0 51 M17 68 C3.83 67.71, -0.02 64.41, 0 51 M0 51 C1.74 44.5, 1.35 36.08, 0 17 M0 51 C-0.9 42.29, -0.33 32.39, 0 17 M0 17 C0.49 7.56, 4.82 -0.38, 17 0 M0 17 C-0.2 7.38, 5.23 -0.9, 17 0" stroke="#1e1e1e" stroke-width="2" fill="none"></path></g><g transform="translate(314.406982421875 211.00045166015627) rotate(0 68.93359375 18.400000000000006)"><text x="68.93359375" y="0" font-family="Helvetica, Segoe UI Emoji" font-size="16px" fill="#1e1e1e" text-anchor="middle" style="white-space: pre;" direction="ltr" dominant-baseline="text-before-edge">request and create </text><text x="68.93359375" y="18.4" font-family="Helvetica, Segoe UI Emoji" font-size="16px" fill="#1e1e1e" text-anchor="middle" style="white-space: pre;" direction="ltr" dominant-baseline="text-before-edge">JSON file</text></g><g stroke-linecap="round" transform="translate(301.6171146882583 273.90673762745934) rotate(0 88.79432624535053 37.75031398374708)"><path d="M18.88 0 C66.45 0.41, 114.26 -2.38, 158.71 0 M18.88 0 C62.55 -1.11, 106.05 -0.67, 158.71 0 M158.71 0 C170.27 1.25, 176.19 4.47, 177.59 18.88 M158.71 0 C171.29 1.48, 178.43 8.32, 177.59 18.88 M177.59 18.88 C177.99 32.89, 178.58 47.04, 177.59 56.63 M177.59 18.88 C177.27 29.75, 177.32 42.04, 177.59 56.63 M177.59 56.63 C177.26 71, 169.66 74.88, 158.71 75.5 M177.59 56.63 C175.5 68.15, 173.24 74.59, 158.71 75.5 M158.71 75.5 C116.85 74.48, 74.76 72.27, 18.88 75.5 M158.71 75.5 C113.32 74.12, 69.3 74.62, 18.88 75.5 M18.88 75.5 C5.18 75.65, -0.95 67.75, 0 56.63 M18.88 75.5 C6.8 73.52, -1.12 68.49, 0 56.63 M0 56.63 C1.41 47.59, 1.38 40.16, 0 18.88 M0 56.63 C-0.7 44.14, -0.08 30.16, 0 18.88 M0 18.88 C-0.27 4.37, 8.22 0.62, 18.88 0 M0 18.88 C1.16 7.69, 7.18 -2.12, 18.88 0" stroke="#1e1e1e" stroke-width="2" fill="none"></path></g><g transform="translate(307.9153471836089 284.0570516112064) rotate(0 82.49609375 27.599999999999994)"><text x="82.49609375" y="0" font-family="Helvetica, Segoe UI Emoji" font-size="16px" fill="#1e1e1e" text-anchor="middle" style="white-space: pre;" direction="ltr" dominant-baseline="text-before-edge">graphql requst code -&gt; </text><text x="82.49609375" y="18.4" font-family="Helvetica, Segoe UI Emoji" font-size="16px" fill="#1e1e1e" text-anchor="middle" style="white-space: pre;" direction="ltr" dominant-baseline="text-before-edge">the code of requesting </text><text x="82.49609375" y="36.8" font-family="Helvetica, Segoe UI Emoji" font-size="16px" fill="#1e1e1e" text-anchor="middle" style="white-space: pre;" direction="ltr" dominant-baseline="text-before-edge">JSON file</text></g><g transform="translate(291.4597473144531 78.0196533203125) rotate(0 45.3515625 9.200000000000003)"><text x="0" y="0" font-family="Helvetica, Segoe UI Emoji" font-size="16px" fill="#1e1e1e" text-anchor="start" style="white-space: pre;" direction="ltr" dominant-baseline="text-before-edge">Node worker</text></g><g stroke-linecap="round" transform="translate(10 10) rotate(0 303.7210235595702 291.86640930175787)"><path d="M32 0 C160.6 -0.95, 287.23 -0.86, 575.44 0 M575.44 0 C596.07 -1.91, 605.72 11.78, 607.44 32 M607.44 32 C605.35 213.85, 605.82 397.02, 607.44 551.73 M607.44 551.73 C608.98 573.97, 598.62 584.93, 575.44 583.73 M575.44 583.73 C431.28 582.65, 288.44 582.8, 32 583.73 M32 583.73 C10.12 581.78, 1.08 571.42, 0 551.73 M0 551.73 C1.1 440.11, 0.93 326.4, 0 32 M0 32 C0.5 11.98, 9.93 0.3, 32 0" stroke="#1e1e1e" stroke-width="2.5" fill="none" stroke-dasharray="8 10"></path></g><g transform="translate(26.431884765625 26.328262329101562) rotate(0 58.2578125 9.200000000000003)"><text x="0" y="0" font-family="Helvetica, Segoe UI Emoji" font-size="16px" fill="#1e1e1e" text-anchor="start" style="white-space: pre;" direction="ltr" dominant-baseline="text-before-edge">develop process</text></g><g stroke-linecap="round" transform="translate(306.8174133300781 104.99838256835938) rotate(0 73.79913330078125 35)"><path d="M17.5 0 C40.48 -2.41, 63.25 0.31, 130.1 0 M17.5 0 C47 -0.43, 77.85 0.21, 130.1 0 M130.1 0 C142.52 1.44, 148.65 4.31, 147.6 17.5 M130.1 0 C141.43 0.78, 145.36 4, 147.6 17.5 M147.6 17.5 C148.22 29.63, 148.76 42.14, 147.6 52.5 M147.6 17.5 C148.17 30.32, 147.26 44.88, 147.6 52.5 M147.6 52.5 C147.75 63.18, 142.45 71.93, 130.1 70 M147.6 52.5 C147.33 61.97, 143.22 70.5, 130.1 70 M130.1 70 C95.69 68.52, 60.4 67.86, 17.5 70 M130.1 70 C88.73 69.34, 48.41 68.8, 17.5 70 M17.5 70 C4.05 68.98, -1.58 64.74, 0 52.5 M17.5 70 C7.32 68.39, -0.4 65.46, 0 52.5 M0 52.5 C1.1 44.26, 1.35 34.28, 0 17.5 M0 52.5 C0.3 42.25, -0.31 32.77, 0 17.5 M0 17.5 C-1.32 7.6, 7.02 1.94, 17.5 0 M0 17.5 C-0.88 7.01, 4.72 0.91, 17.5 0" stroke="#1e1e1e" stroke-width="2" fill="none"></path></g><g transform="translate(313.0149841308594 121.59838256835937) rotate(0 67.6015625 18.39999999999999)"><text x="67.6015625" y="0" font-family="Helvetica, Segoe UI Emoji" font-size="16px" fill="#1e1e1e" text-anchor="middle" style="white-space: pre;" direction="ltr" dominant-baseline="text-before-edge">run plugins and set</text><text x="67.6015625" y="18.4" font-family="Helvetica, Segoe UI Emoji" font-size="16px" fill="#1e1e1e" text-anchor="middle" style="white-space: pre;" direction="ltr" dominant-baseline="text-before-edge">up grapQL service</text></g><g mask="url(#mask-SLyo4K11fmWGWc9VQKVEv)" stroke-linecap="round"><g transform="translate(299.0297546386719 129.87991333007812) rotate(0 -58.76924133300781 35.841644287109375)"><path d="M-0.65 1.2 C-20.28 12.96, -97.54 59.77, -117.15 71.62 M1.21 0.78 C-18.6 13.27, -98.39 61.54, -117.89 73.13" stroke="#1e1e1e" stroke-width="2" fill="none"></path></g><g transform="translate(299.0297546386719 129.87991333007812) rotate(0 -58.76924133300781 35.841644287109375)"><path d="M-99.02 49.81 C-103.45 58.54, -112.17 64.82, -117.89 73.13 M-99.02 49.81 C-104.82 58.47, -112.76 65.31, -117.89 73.13" stroke="#1e1e1e" stroke-width="2" fill="none"></path></g><g transform="translate(299.0297546386719 129.87991333007812) rotate(0 -58.76924133300781 35.841644287109375)"><path d="M-88.45 67.4 C-96.74 69.9, -109.17 70, -117.89 73.13 M-88.45 67.4 C-97.93 69.79, -109.59 70.45, -117.89 73.13" stroke="#1e1e1e" stroke-width="2" fill="none"></path></g></g><mask id="mask-SLyo4K11fmWGWc9VQKVEv"><rect x="0" y="0" fill="#fff" width="516.5682373046875" height="301.5632019042969"></rect><rect x="218.46754455566406" y="156.5215576171875" fill="#000" width="43.5859375" height="18.4" opacity="1"></rect></mask><g transform="translate(218.46754455566406 156.5215576171875) rotate(0 22.217556634098344 10.31175330862402)"><text x="21.79296875" y="0" font-family="Helvetica, Segoe UI Emoji" font-size="16px" fill="#1e1e1e" text-anchor="middle" style="white-space: pre;" direction="ltr" dominant-baseline="text-before-edge">set up</text></g><g stroke-linecap="round"><g transform="translate(217.42068481445312 233.500732421875) rotate(0 42.243804931640625 -0.5984344482421875)"><path d="M0.74 -1.01 C14.95 -1.31, 71.42 -0.79, 85.22 -0.9 M-0.32 1.07 C13.78 0.31, 70.28 -2.58, 84.66 -2.86" stroke="#1e1e1e" stroke-width="2" fill="none"></path></g><g transform="translate(217.42068481445312 233.500732421875) rotate(0 42.243804931640625 -0.5984344482421875)"><path d="M56.88 8.45 C63.46 6.1, 74 -0.09, 84.66 -2.86 M56.88 8.45 C64.72 5.93, 71.17 1.7, 84.66 -2.86" stroke="#1e1e1e" stroke-width="2" fill="none"></path></g><g transform="translate(217.42068481445312 233.500732421875) rotate(0 42.243804931640625 -0.5984344482421875)"><path d="M56.1 -12.06 C63.08 -8.24, 73.85 -8.26, 84.66 -2.86 M56.1 -12.06 C64.12 -9.25, 70.77 -8.14, 84.66 -2.86" stroke="#1e1e1e" stroke-width="2" fill="none"></path></g></g><mask></mask><g stroke-linecap="round"><g transform="translate(382.1498718261719 175.41842651367188) rotate(0 -0.271942138671875 10.3062744140625)"><path d="M-0.37 -0.26 C-0.41 3.31, -0.34 17.42, -0.31 20.91 M0.45 0.8 C0.35 4.25, -0.48 16.68, -0.62 20.09" stroke="#1e1e1e" stroke-width="1" fill="none"></path></g><g transform="translate(382.1498718261719 175.41842651367188) rotate(0 -0.271942138671875 10.3062744140625)"><path d="M-3.61 10.23 C-3.02 13.36, -1.62 16.35, -0.62 20.09 M-3.61 10.23 C-2.67 13.04, -1.61 16.53, -0.62 20.09" stroke="#1e1e1e" stroke-width="1" fill="none"></path></g><g transform="translate(382.1498718261719 175.41842651367188) rotate(0 -0.271942138671875 10.3062744140625)"><path d="M3.43 10.61 C1.95 13.61, 1.28 16.49, -0.62 20.09 M3.43 10.61 C2.2 13.33, 1.08 16.69, -0.62 20.09" stroke="#1e1e1e" stroke-width="1" fill="none"></path></g></g><mask></mask><g stroke-linecap="round"><g transform="translate(384.8919982910156 249.59786987304688) rotate(0 0.197357177734375 12.581268310546875)"><path d="M0 0 C0.07 4.19, 0.33 20.97, 0.39 25.16 M0 0 C0.07 4.19, 0.33 20.97, 0.39 25.16" stroke="#1e1e1e" stroke-width="1" fill="none"></path></g><g transform="translate(384.8919982910156 249.59786987304688) rotate(0 0.197357177734375 12.581268310546875)"><path d="M-4.09 13.41 C-3.02 16.21, -1.95 19.02, 0.39 25.16 M-4.09 13.41 C-2.37 17.91, -0.65 22.42, 0.39 25.16" stroke="#1e1e1e" stroke-width="1" fill="none"></path></g><g transform="translate(384.8919982910156 249.59786987304688) rotate(0 0.197357177734375 12.581268310546875)"><path d="M4.51 13.27 C3.53 16.11, 2.55 18.95, 0.39 25.16 M4.51 13.27 C2.93 17.83, 1.36 22.39, 0.39 25.16" stroke="#1e1e1e" stroke-width="1" fill="none"></path></g></g><mask></mask><g transform="translate(30.7041015625 542.5671997070312) rotate(0 171.1953125 9.199999999999989)"><text x="0" y="0" font-family="Helvetica, Segoe UI Emoji" font-size="16px" fill="#1e1e1e" text-anchor="start" style="white-space: pre;" direction="ltr" dominant-baseline="text-before-edge">- JSON data would be stored in file fomat in dish</text></g><g stroke-linecap="round" transform="translate(313.9559631347656 438.10701766951263) rotate(0 73.9061279296875 35)"><path d="M17.5 0 C54.05 -0.99, 91.91 -0.05, 130.31 0 M17.5 0 C47.93 -0.18, 79.07 0.08, 130.31 0 M130.31 0 C142.19 1.25, 147.79 4.43, 147.81 17.5 M130.31 0 C142.99 0.21, 145.98 6.65, 147.81 17.5 M147.81 17.5 C145.97 29.43, 147.04 39.32, 147.81 52.5 M147.81 17.5 C147.81 31.16, 147.4 44.15, 147.81 52.5 M147.81 52.5 C147.81 65.36, 143.76 71.19, 130.31 70 M147.81 52.5 C145.67 63.77, 141.28 71, 130.31 70 M130.31 70 C84.81 69.4, 43.06 69.17, 17.5 70 M130.31 70 C107.54 69.81, 85.61 68.92, 17.5 70 M17.5 70 C5.89 69.32, 1.42 62.32, 0 52.5 M17.5 70 C6.62 71.5, -0.56 63.08, 0 52.5 M0 52.5 C-0.31 38.43, 0.89 27.55, 0 17.5 M0 52.5 C-0.11 43.69, -0.86 34.64, 0 17.5 M0 17.5 C0.71 6.35, 6.45 0.16, 17.5 0 M0 17.5 C-0.27 6.29, 7.89 -0.06, 17.5 0" stroke="#1e1e1e" stroke-width="2" fill="none"></path></g><g transform="translate(320.2644348144531 445.5070176695126) rotate(0 67.59765625 27.600000000000023)"><text x="67.59765625" y="0" font-family="Helvetica, Segoe UI Emoji" font-size="16px" fill="#1e1e1e" text-anchor="middle" style="white-space: pre;" direction="ltr" dominant-baseline="text-before-edge">dev build and start </text><text x="67.59765625" y="18.4" font-family="Helvetica, Segoe UI Emoji" font-size="16px" fill="#1e1e1e" text-anchor="middle" style="white-space: pre;" direction="ltr" dominant-baseline="text-before-edge">webpack dev </text><text x="67.59765625" y="36.8" font-family="Helvetica, Segoe UI Emoji" font-size="16px" fill="#1e1e1e" text-anchor="middle" style="white-space: pre;" direction="ltr" dominant-baseline="text-before-edge">server</text></g><g stroke-linecap="round" transform="translate(42.073074340820426 871.8469696044922) rotate(0 87.93133544921875 31.675186157226562)"><path d="M15.84 0 C53.3 -1.31, 88.05 -3.23, 160.03 0 M15.84 0 C57.72 0.54, 97.39 0.24, 160.03 0 M160.03 0 C168.79 -0.24, 177.1 3.78, 175.86 15.84 M160.03 0 C170.73 -0.49, 176.22 5.07, 175.86 15.84 M175.86 15.84 C174.36 24.76, 175.52 35.64, 175.86 47.51 M175.86 15.84 C175.72 24.31, 175.55 32.35, 175.86 47.51 M175.86 47.51 C175.57 57.36, 169.52 64.91, 160.03 63.35 M175.86 47.51 C174.95 58.86, 171.97 65.25, 160.03 63.35 M160.03 63.35 C125.84 62.77, 88.71 62.91, 15.84 63.35 M160.03 63.35 C119.1 63.2, 79.17 63.62, 15.84 63.35 M15.84 63.35 C4.46 65.05, -0.65 59.93, 0 47.51 M15.84 63.35 C3.45 62.44, -1.29 59.56, 0 47.51 M0 47.51 C-1.81 42.73, 0.55 35.4, 0 15.84 M0 47.51 C-0.22 37.87, -0.93 26.06, 0 15.84 M0 15.84 C0.44 3.44, 5.87 -1.56, 15.84 0 M0 15.84 C0.4 3.95, 5.98 2.23, 15.84 0" stroke="#1e1e1e" stroke-width="2" fill="none"></path></g><g transform="translate(51.333572387695426 890.3185882568359) rotate(0 73.369140625 11.5)"><text x="0" y="0" font-family="Helvetica, Segoe UI Emoji" font-size="20px" fill="#1e1e1e" text-anchor="start" style="white-space: pre;" direction="ltr" dominant-baseline="text-before-edge">graphQL service</text></g><g stroke-linecap="round" transform="translate(284.97483825683594 735.0116424560547) rotate(0 108.2598876953125 236.9894256591797)"><path d="M32 0 C77.05 2.06, 121.85 2.76, 184.52 0 M32 0 C76.24 0.4, 122.89 -0.23, 184.52 0 M184.52 0 C205.98 -0.42, 216.83 10.48, 216.52 32 M184.52 0 C206.71 0.82, 217.66 8.81, 216.52 32 M216.52 32 C215.66 119.69, 216.83 205.6, 216.52 441.98 M216.52 32 C215.29 153.45, 215.07 275.71, 216.52 441.98 M216.52 441.98 C215.72 464, 207.06 475.63, 184.52 473.98 M216.52 441.98 C215.2 464.91, 206.24 474.93, 184.52 473.98 M184.52 473.98 C144.69 471.61, 105.53 473.07, 32 473.98 M184.52 473.98 C140.41 475.26, 96.79 475.34, 32 473.98 M32 473.98 C9.07 473.19, -1.12 464.61, 0 441.98 M32 473.98 C8.57 475.1, -0.36 461.4, 0 441.98 M0 441.98 C-0.53 282.09, -1.25 120.87, 0 32 M0 441.98 C1.79 293.17, 1.83 144.94, 0 32 M0 32 C0.34 9.51, 11.27 1.94, 32 0 M0 32 C0.99 9.41, 10.97 1.73, 32 0" stroke="#1e1e1e" stroke-width="2" fill="none"></path></g><g stroke-linecap="round" transform="translate(315.5101042466889 857.0628390047433) rotate(0 77.74618530273438 34)"><path d="M17 0 C40.65 0.92, 65.83 -2.27, 138.49 0 M17 0 C49.93 -0.61, 81.68 -0.07, 138.49 0 M138.49 0 C150.14 -0.19, 156.24 6.38, 155.49 17 M138.49 0 C150.96 -1.85, 153.47 5.14, 155.49 17 M155.49 17 C156.88 23.86, 155.32 31.07, 155.49 51 M155.49 17 C154.91 26.29, 155.04 34.37, 155.49 51 M155.49 51 C156.7 63.98, 148.68 69.39, 138.49 68 M155.49 51 C155.88 63.28, 148.88 66.52, 138.49 68 M138.49 68 C106.18 66.5, 73.64 68.11, 17 68 M138.49 68 C98.3 69.96, 57.97 68.64, 17 68 M17 68 C4.54 69.3, -1.82 63.31, 0 51 M17 68 C5.31 66.09, 2.11 63.14, 0 51 M0 51 C-0.92 38.85, 1.15 25.35, 0 17 M0 51 C0.22 43.19, 0.1 36.37, 0 17 M0 17 C0.61 7.61, 6.53 -1.09, 17 0 M0 17 C0.3 7.4, 6.43 -0.01, 17 0" stroke="#1e1e1e" stroke-width="2" fill="none"></path></g><g transform="translate(324.3226957994233 872.6628390047433) rotate(0 68.93359375 18.399999999999977)"><text x="68.93359375" y="0" font-family="Helvetica, Segoe UI Emoji" font-size="16px" fill="#1e1e1e" text-anchor="middle" style="white-space: pre;" direction="ltr" dominant-baseline="text-before-edge">request and create </text><text x="68.93359375" y="18.4" font-family="Helvetica, Segoe UI Emoji" font-size="16px" fill="#1e1e1e" text-anchor="middle" style="white-space: pre;" direction="ltr" dominant-baseline="text-before-edge">JSON file</text></g><g transform="translate(300.5634002685547 742.9368133544922) rotate(0 45.3515625 9.199999999999989)"><text x="0" y="0" font-family="Helvetica, Segoe UI Emoji" font-size="16px" fill="#1e1e1e" text-anchor="start" style="white-space: pre;" direction="ltr" dominant-baseline="text-before-edge">Node worker</text></g><g stroke-linecap="round" transform="translate(13.712387084961051 671.5086212158203) rotate(0 480.9926605224609 361.23524475097656)"><path d="M32 0 C356.78 -0.11, 681.83 0.07, 929.99 0 M929.99 0 C952.03 0.99, 960.37 8.91, 961.99 32 M961.99 32 C960.44 215.16, 959.65 397.1, 961.99 690.47 M961.99 690.47 C960.96 710.81, 951.02 721.76, 929.99 722.47 M929.99 722.47 C708.79 721.52, 487.69 720.58, 32 722.47 M32 722.47 C12.06 722.81, 0.82 710.98, 0 690.47 M0 690.47 C0.16 535.33, 0.75 380.1, 0 32 M0 32 C1.23 11.23, 9.85 1.7, 32 0" stroke="#1e1e1e" stroke-width="2.5" fill="none" stroke-dasharray="8 10"></path></g><g transform="translate(35.535537719726676 691.2454223632812) rotate(0 47.13671875 9.199999999999989)"><text x="0" y="0" font-family="Helvetica, Segoe UI Emoji" font-size="16px" fill="#1e1e1e" text-anchor="start" style="white-space: pre;" direction="ltr" dominant-baseline="text-before-edge">build process</text></g><g stroke-linecap="round" transform="translate(315.9210662841797 769.9155426025391) rotate(0 73.79913330078125 35)"><path d="M17.5 0 C53.74 0.57, 86.95 -2.18, 130.1 0 M17.5 0 C49.36 1.1, 79.59 0.32, 130.1 0 M130.1 0 C140.74 -0.99, 147.3 5.13, 147.6 17.5 M130.1 0 C140.54 1.79, 146.68 6.63, 147.6 17.5 M147.6 17.5 C149.28 30.45, 148.71 41.91, 147.6 52.5 M147.6 17.5 C146.55 25.74, 147.29 33.86, 147.6 52.5 M147.6 52.5 C148.83 64.73, 140.94 71.7, 130.1 70 M147.6 52.5 C146.85 66.3, 139.93 69.09, 130.1 70 M130.1 70 C103.61 68.66, 73.52 70.8, 17.5 70 M130.1 70 C92.96 69.85, 54.6 70.89, 17.5 70 M17.5 70 C4.36 68.13, 0.44 62.33, 0 52.5 M17.5 70 C6.51 68.21, 0.4 62.84, 0 52.5 M0 52.5 C-1.43 41.2, 1.17 30.04, 0 17.5 M0 52.5 C1 41.9, -0.16 31.3, 0 17.5 M0 17.5 C0.15 7.8, 4.81 0.91, 17.5 0 M0 17.5 C-1.7 3.9, 7.49 0.23, 17.5 0" stroke="#1e1e1e" stroke-width="2" fill="none"></path></g><g transform="translate(322.11863708496094 786.5155426025391) rotate(0 67.6015625 18.399999999999977)"><text x="67.6015625" y="0" font-family="Helvetica, Segoe UI Emoji" font-size="16px" fill="#1e1e1e" text-anchor="middle" style="white-space: pre;" direction="ltr" dominant-baseline="text-before-edge">run plugins and set</text><text x="67.6015625" y="18.4" font-family="Helvetica, Segoe UI Emoji" font-size="16px" fill="#1e1e1e" text-anchor="middle" style="white-space: pre;" direction="ltr" dominant-baseline="text-before-edge">up grapQL service</text></g><g mask="url(#mask-15WwRfOBW5l5OGLAuy84-)" stroke-linecap="round"><g transform="translate(308.13340759277344 794.7970733642578) rotate(0 -58.76924133300781 35.841644287109375)"><path d="M-1.05 -0.27 C-20.9 11.77, -99.19 59.16, -118.47 71.31 M0.59 -1.46 C-18.93 10.84, -96.63 60.62, -116.25 72.64" stroke="#1e1e1e" stroke-width="2" fill="none"></path></g><g transform="translate(308.13340759277344 794.7970733642578) rotate(0 -58.76924133300781 35.841644287109375)"><path d="M-97.85 48.95 C-104.93 55.51, -111.53 66.62, -116.25 72.64 M-97.85 48.95 C-105.34 57.33, -111.88 66.35, -116.25 72.64" stroke="#1e1e1e" stroke-width="2" fill="none"></path></g><g transform="translate(308.13340759277344 794.7970733642578) rotate(0 -58.76924133300781 35.841644287109375)"><path d="M-86.93 66.33 C-97.68 66.72, -108.1 71.76, -116.25 72.64 M-86.93 66.33 C-98.45 68.19, -109.08 70.7, -116.25 72.64" stroke="#1e1e1e" stroke-width="2" fill="none"></path></g></g><mask id="mask-15WwRfOBW5l5OGLAuy84-"><rect x="0" y="0" fill="#fff" width="525.6718902587891" height="966.4803619384766"></rect><rect x="227.57119750976562" y="821.4387176513671" fill="#000" width="43.5859375" height="18.4" opacity="1"></rect></mask><g transform="translate(227.57119750976562 821.4387176513671) rotate(0 21.62171147239394 8.949388127755412)"><text x="21.79296875" y="0" font-family="Helvetica, Segoe UI Emoji" font-size="16px" fill="#1e1e1e" text-anchor="middle" style="white-space: pre;" direction="ltr" dominant-baseline="text-before-edge">set up</text></g><g stroke-linecap="round"><g transform="translate(226.5243377685547 900.4245877807814) rotate(0 42.64983514336399 0.20165863848978915)"><path d="M-0.94 -0.38 C13.58 -0.12, 71.76 1.18, 86.07 1.3 M0.77 -1.62 C15.29 -1.66, 71.67 -0.9, 85.52 -0.35" stroke="#1e1e1e" stroke-width="2" fill="none"></path></g><g transform="translate(226.5243377685547 900.4245877807814) rotate(0 42.64983514336399 0.20165863848978915)"><path d="M57.09 9.23 C62.52 8.69, 70.67 4.69, 85.52 -0.35 M57.09 9.23 C65.43 6.17, 73.48 4.46, 85.52 -0.35" stroke="#1e1e1e" stroke-width="2" fill="none"></path></g><g transform="translate(226.5243377685547 900.4245877807814) rotate(0 42.64983514336399 0.20165863848978915)"><path d="M57.59 -11.29 C62.86 -7.47, 70.91 -7.12, 85.52 -0.35 M57.59 -11.29 C65.67 -8.26, 73.57 -3.88, 85.52 -0.35" stroke="#1e1e1e" stroke-width="2" fill="none"></path></g></g><mask></mask><g stroke-linecap="round"><g transform="translate(391.25352478027344 840.3355865478516) rotate(0 -0.271942138671875 10.3062744140625)"><path d="M0.35 0.41 C0.3 3.87, -0.54 17.27, -0.73 20.59 M-0.13 0.15 C-0.23 3.71, -1.07 17.84, -1.26 21.28" stroke="#1e1e1e" stroke-width="1" fill="none"></path></g><g transform="translate(391.25352478027344 840.3355865478516) rotate(0 -0.271942138671875 10.3062744140625)"><path d="M-4.23 11.41 C-3.2 13.41, -2.94 15.52, -1.26 21.28 M-4.23 11.41 C-3.63 14.09, -2.85 16.45, -1.26 21.28" stroke="#1e1e1e" stroke-width="1" fill="none"></path></g><g transform="translate(391.25352478027344 840.3355865478516) rotate(0 -0.271942138671875 10.3062744140625)"><path d="M2.82 11.82 C2.28 13.75, 0.97 15.77, -1.26 21.28 M2.82 11.82 C1.65 14.38, 0.66 16.64, -1.26 21.28" stroke="#1e1e1e" stroke-width="1" fill="none"></path></g></g><mask></mask><g stroke-linecap="round"><g transform="translate(393.9956512451172 914.5150299072266) rotate(0 0.197357177734375 12.581268310546875)"><path d="M0 0 C0.07 4.19, 0.33 20.97, 0.39 25.16 M0 0 C0.07 4.19, 0.33 20.97, 0.39 25.16" stroke="#1e1e1e" stroke-width="1" fill="none"></path></g><g transform="translate(393.9956512451172 914.5150299072266) rotate(0 0.197357177734375 12.581268310546875)"><path d="M-4.09 13.41 C-2.46 17.69, -0.83 21.96, 0.39 25.16 M-4.09 13.41 C-2.91 16.52, -1.72 19.63, 0.39 25.16" stroke="#1e1e1e" stroke-width="1" fill="none"></path></g><g transform="translate(393.9956512451172 914.5150299072266) rotate(0 0.197357177734375 12.581268310546875)"><path d="M4.51 13.27 C3.01 17.6, 1.52 21.93, 0.39 25.16 M4.51 13.27 C3.42 16.42, 2.33 19.57, 0.39 25.16" stroke="#1e1e1e" stroke-width="1" fill="none"></path></g></g><mask></mask><g stroke-linecap="round" transform="translate(323.4547576904297 1096.2093658447266) rotate(0 74.25473022460938 24.5)"><path d="M12.25 0 C42.4 -0.88, 75.53 -0.61, 136.26 0 M12.25 0 C53.15 -0.33, 95.36 -0.61, 136.26 0 M136.26 0 C143.6 -1.29, 147.83 3.73, 148.51 12.25 M136.26 0 C142.3 -0.02, 148.07 3.77, 148.51 12.25 M148.51 12.25 C150.28 20.46, 150.44 28.38, 148.51 36.75 M148.51 12.25 C147.46 19.12, 148.22 24.19, 148.51 36.75 M148.51 36.75 C150.34 45.62, 145.54 49.48, 136.26 49 M148.51 36.75 C149.87 43.95, 144.35 50.42, 136.26 49 M136.26 49 C106.38 49.86, 78.63 49.62, 12.25 49 M136.26 49 C106.63 49.66, 76.27 50.96, 12.25 49 M12.25 49 C4.75 48.99, -0.29 43.97, 0 36.75 M12.25 49 C6.26 48.74, -0.48 44.38, 0 36.75 M0 36.75 C0.67 27.74, -1.92 23.12, 0 12.25 M0 36.75 C0.32 28.87, 0.44 21.85, 0 12.25 M0 12.25 C0.2 3.79, 3.22 0.17, 12.25 0 M0 12.25 C-0.04 3.03, 4.23 1.35, 12.25 0" stroke="#1e1e1e" stroke-width="2" fill="none"></path></g><g transform="translate(341.22511291503906 1111.5093658447265) rotate(0 56.484375 9.200000000000045)"><text x="56.484375" y="0" font-family="Helvetica, Segoe UI Emoji" font-size="16px" fill="#1e1e1e" text-anchor="middle" style="white-space: pre;" direction="ltr" dominant-baseline="text-before-edge">production build</text></g><g stroke-linecap="round" transform="translate(323.12255859375 1161.2449645996094) rotate(0 73.96307373046875 16.933929443359375)"><path d="M8.47 0 C40.17 1.81, 72.02 -0.61, 139.46 0 M8.47 0 C38.97 1.17, 70.61 0.82, 139.46 0 M139.46 0 C144.14 -0.06, 149.1 3.6, 147.93 8.47 M139.46 0 C145.25 -1.08, 146.57 3.3, 147.93 8.47 M147.93 8.47 C148.33 11.51, 147.67 14.03, 147.93 25.4 M147.93 8.47 C147.43 14.52, 147.64 20.06, 147.93 25.4 M147.93 25.4 C148.78 32, 146.59 34.66, 139.46 33.87 M147.93 25.4 C149.22 29.93, 142.88 33.1, 139.46 33.87 M139.46 33.87 C99.6 32.65, 57.31 33.64, 8.47 33.87 M139.46 33.87 C100.37 31.71, 63.06 32.64, 8.47 33.87 M8.47 33.87 C4.23 32.46, -0.88 32.82, 0 25.4 M8.47 33.87 C2.88 32.42, 0.53 32.91, 0 25.4 M0 25.4 C-1.66 19.27, 0.34 14.61, 0 8.47 M0 25.4 C0.44 20.21, -0.76 14.44, 0 8.47 M0 8.47 C0.29 3.02, 1.9 1.8, 8.47 0 M0 8.47 C1.78 2.6, 1.05 -0.87, 8.47 0" stroke="#1e1e1e" stroke-width="2" fill="none"></path></g><g transform="translate(353.96453857421875 1168.9788940429687) rotate(0 43.12109375 9.200000000000045)"><text x="43.12109375" y="0" font-family="Helvetica, Segoe UI Emoji" font-size="16px" fill="#1e1e1e" text-anchor="middle" style="white-space: pre;" direction="ltr" dominant-baseline="text-before-edge">start service</text></g><g stroke-linecap="round"><g transform="translate(398.21675329920845 1134.9239654541016) rotate(0 0.39478919162758075 12.616493225097656)"><path d="M-0.45 -0.07 C-0.34 4.11, 0.64 21.35, 0.84 25.51 M0.31 -0.59 C0.35 3.4, 0.43 20.37, 0.43 24.69" stroke="#1e1e1e" stroke-width="2" fill="none"></path></g><g transform="translate(398.21675329920845 1134.9239654541016) rotate(0 0.39478919162758075 12.616493225097656)"><path d="M-3.92 12.84 C-2.55 16.74, -0.75 20.43, 0.43 24.69 M-3.92 12.84 C-2.97 15.55, -1.8 18.13, 0.43 24.69" stroke="#1e1e1e" stroke-width="2" fill="none"></path></g><g transform="translate(398.21675329920845 1134.9239654541016) rotate(0 0.39478919162758075 12.616493225097656)"><path d="M4.72 12.81 C3.29 16.68, 2.31 20.38, 0.43 24.69 M4.72 12.81 C3.64 15.55, 2.79 18.14, 0.43 24.69" stroke="#1e1e1e" stroke-width="2" fill="none"></path></g></g><mask></mask><g stroke-linecap="round" transform="translate(686.860107421875 753.6080627441406) rotate(0 113.81253051757812 173.70233154296875)"><path d="M32 0 C82.67 2.55, 128.53 0.28, 195.63 0 M32 0 C83.05 -0.18, 132.92 0.79, 195.63 0 M195.63 0 C215.11 1.41, 225.89 11.94, 227.63 32 M195.63 0 C215.13 -1.41, 227.7 10.91, 227.63 32 M227.63 32 C227 119.62, 229.24 207.36, 227.63 315.4 M227.63 32 C229.43 98.9, 228.71 166.78, 227.63 315.4 M227.63 315.4 C225.85 335.11, 218.31 348.26, 195.63 347.4 M227.63 315.4 C229.39 335.39, 217.15 347.54, 195.63 347.4 M195.63 347.4 C133.1 345.72, 71.2 345.73, 32 347.4 M195.63 347.4 C145.17 347.23, 94.66 346.48, 32 347.4 M32 347.4 C9.02 345.75, -1.99 334.83, 0 315.4 M32 347.4 C9.88 347.54, -2.2 336.96, 0 315.4 M0 315.4 C-0.43 246.57, 1.89 173.83, 0 32 M0 315.4 C2.05 204.32, 1.93 91.77, 0 32 M0 32 C1.11 10.11, 11.42 1.33, 32 0 M0 32 C0.41 8.37, 9.25 1.9, 32 0" stroke="#1e1e1e" stroke-width="2" fill="none"></path></g><g transform="translate(709.4922485351562 763.267333984375) rotate(0 71.578125 9.199999999999989)"><text x="0" y="0" font-family="Helvetica, Segoe UI Emoji" font-size="16px" fill="#1e1e1e" text-anchor="start" style="white-space: pre;" direction="ltr" dominant-baseline="text-before-edge">Node worker (client)</text></g><g mask="url(#mask-rrArCFkHsFf6juPsHLv5n)" stroke-linecap="round"><g transform="translate(503.7630615234375 891.966377608636) rotate(0 91.04522705078125 -2.5125893678745683)"><path d="M0.4 -0.44 C30.6 -1.48, 152.11 -4.48, 182.29 -5.17 M-0.85 -1.71 C29.11 -2.05, 151.25 -2.88, 181.45 -3.71" stroke="#1e1e1e" stroke-width="2" fill="none"></path></g><g transform="translate(503.7630615234375 891.966377608636) rotate(0 91.04522705078125 -2.5125893678745683)"><path d="M153.42 6.99 C163.58 3.04, 175.05 -2.53, 181.45 -3.71 M153.42 6.99 C163.01 4.17, 172.72 -0.41, 181.45 -3.71" stroke="#1e1e1e" stroke-width="2" fill="none"></path></g><g transform="translate(503.7630615234375 891.966377608636) rotate(0 91.04522705078125 -2.5125893678745683)"><path d="M153.1 -13.53 C163.58 -9.44, 175.17 -6.97, 181.45 -3.71 M153.1 -13.53 C162.65 -9.42, 172.47 -7.07, 181.45 -3.71" stroke="#1e1e1e" stroke-width="2" fill="none"></path></g></g><mask id="mask-rrArCFkHsFf6juPsHLv5n"><rect x="0" y="0" fill="#fff" width="785.853515625" height="996.9915563443851"></rect><rect x="541.8786010742188" y="880.2537882407613" fill="#000" width="105.859375" height="18.4" opacity="1"></rect></mask><g transform="translate(541.8786010742188 880.2537882407614) rotate(0 52.60523868915624 8.908764870092284)"><text x="52.9296875" y="0" font-family="Helvetica, Segoe UI Emoji" font-size="16px" fill="#1e1e1e" text-anchor="middle" style="white-space: pre;" direction="ltr" dominant-baseline="text-before-edge">page response</text></g><g stroke-linecap="round" transform="translate(714.2423706054688 799.4215698242188) rotate(0 92.97006225585938 34)"><path d="M17 0 C71.68 1.13, 128.82 1.69, 168.94 0 M17 0 C76.4 0.53, 133.72 1.23, 168.94 0 M168.94 0 C179.14 0.1, 186.4 6.21, 185.94 17 M168.94 0 C182.57 0.78, 186.84 7.64, 185.94 17 M185.94 17 C184.12 26.69, 186.37 34.41, 185.94 51 M185.94 17 C186.15 25.82, 186.82 35.05, 185.94 51 M185.94 51 C186.27 63.99, 182.26 67.95, 168.94 68 M185.94 51 C188.21 61.58, 178.19 69.02, 168.94 68 M168.94 68 C127.87 67.86, 81.55 68.79, 17 68 M168.94 68 C112.93 68.46, 57.18 68.19, 17 68 M17 68 C7.01 66.71, -0.72 64.1, 0 51 M17 68 C4.59 67.65, -0.35 64.41, 0 51 M0 51 C1.39 42.31, 1.44 32.73, 0 17 M0 51 C-0.81 40.08, 1.02 29.28, 0 17 M0 17 C-1.89 5.04, 7.36 0.15, 17 0 M0 17 C-0.12 6.51, 5.03 1.33, 17 0" stroke="#1e1e1e" stroke-width="2" fill="none"></path></g><g transform="translate(728.0405578613281 815.0215698242188) rotate(0 79.171875 18.399999999999977)"><text x="79.171875" y="0" font-family="Helvetica, Segoe UI Emoji" font-size="16px" fill="#1e1e1e" text-anchor="middle" style="white-space: pre;" direction="ltr" dominant-baseline="text-before-edge">sending page request </text><text x="79.171875" y="18.4" font-family="Helvetica, Segoe UI Emoji" font-size="16px" fill="#1e1e1e" text-anchor="middle" style="white-space: pre;" direction="ltr" dominant-baseline="text-before-edge">for each page</text></g><g stroke-linecap="round" transform="translate(717.3452758789062 877.802001953125) rotate(0 90.49365234375 34)"><path d="M17 0 C73.76 -0.82, 128.28 -1.54, 163.99 0 M17 0 C72.69 0.7, 127.88 0.83, 163.99 0 M163.99 0 C175.84 0.25, 180.63 4.21, 180.99 17 M163.99 0 C176.88 1.82, 179.36 6.75, 180.99 17 M180.99 17 C182.71 29.2, 179.82 44.24, 180.99 51 M180.99 17 C180.44 30.78, 180.98 42.3, 180.99 51 M180.99 51 C179 62.16, 176.9 66.15, 163.99 68 M180.99 51 C183.28 63.2, 176.21 66.91, 163.99 68 M163.99 68 C130.19 68.68, 96.96 64.96, 17 68 M163.99 68 C107.12 68.86, 51.12 67.65, 17 68 M17 68 C6.01 67.79, -0.8 62.77, 0 51 M17 68 C3.7 69.45, 0.27 64.56, 0 51 M0 51 C-0.26 43.98, -0.37 36.87, 0 17 M0 51 C0 43.22, 0.28 34.08, 0 17 M0 17 C0.6 7.05, 4.39 0.68, 17 0 M0 17 C2.01 4.77, 5.66 -0.7, 17 0" stroke="#1e1e1e" stroke-width="2" fill="none"></path></g><g transform="translate(727.7842407226562 893.402001953125) rotate(0 80.0546875 18.400000000000034)"><text x="80.0546875" y="0" font-family="Helvetica, Segoe UI Emoji" font-size="16px" fill="#1e1e1e" text-anchor="middle" style="white-space: pre;" direction="ltr" dominant-baseline="text-before-edge">create and store page </text><text x="80.0546875" y="18.4" font-family="Helvetica, Segoe UI Emoji" font-size="16px" fill="#1e1e1e" text-anchor="middle" style="white-space: pre;" direction="ltr" dominant-baseline="text-before-edge">static html file</text></g><g stroke-linecap="round"><g transform="translate(812.0744018554688 857.941162109375) rotate(0 0.293548583984375 10.337356567382812)"><path d="M0.33 -0.29 C0.46 3.3, 1.06 17.62, 1.01 21.11 M-0.16 0.75 C-0.09 4.23, 0.59 16.95, 0.8 20.36" stroke="#1e1e1e" stroke-width="1" fill="none"></path></g><g transform="translate(812.0744018554688 857.941162109375) rotate(0 0.293548583984375 10.337356567382812)"><path d="M-3.28 10.86 C-2.2 14.49, -0.12 16.84, 0.8 20.36 M-3.28 10.86 C-2.13 13.59, -0.95 16.28, 0.8 20.36" stroke="#1e1e1e" stroke-width="1" fill="none"></path></g><g transform="translate(812.0744018554688 857.941162109375) rotate(0 0.293548583984375 10.337356567382812)"><path d="M3.78 10.46 C2.45 14.25, 2.11 16.73, 0.8 20.36 M3.78 10.46 C2.88 13.34, 2.01 16.14, 0.8 20.36" stroke="#1e1e1e" stroke-width="1" fill="none"></path></g></g><mask></mask><g stroke-linecap="round" transform="translate(720.9251098632812 958.03369140625) rotate(0 88.5345458984375 25)"><path d="M12.5 0 C70.79 -1.13, 126.02 -0.17, 164.57 0 M12.5 0 C65.98 0.83, 118.13 1.83, 164.57 0 M164.57 0 C171.63 0.97, 178.38 3.78, 177.07 12.5 M164.57 0 C170.8 -2.22, 174.95 2.56, 177.07 12.5 M177.07 12.5 C176.83 21.55, 178.35 33.15, 177.07 37.5 M177.07 12.5 C177.4 18.61, 177.35 23.34, 177.07 37.5 M177.07 37.5 C176.19 44.11, 171.49 50.88, 164.57 50 M177.07 37.5 C177.02 44.03, 174.24 47.94, 164.57 50 M164.57 50 C110.78 51.48, 60.16 48.67, 12.5 50 M164.57 50 C120.71 50.92, 76.32 51.03, 12.5 50 M12.5 50 C4.46 48.75, 0.64 45.54, 0 37.5 M12.5 50 C4.88 48.46, -0.38 44.06, 0 37.5 M0 37.5 C0.05 29.65, -1.66 19.92, 0 12.5 M0 37.5 C0.17 31.45, 0.22 25.63, 0 12.5 M0 12.5 C-1.59 3.24, 5.07 -1.17, 12.5 0 M0 12.5 C1.92 6.16, 4.33 -1.41, 12.5 0" stroke="#1e1e1e" stroke-width="2" fill="none"></path></g><g transform="translate(740.5221557617188 964.6336914062499) rotate(0 68.9375 18.399999999999977)"><text x="68.9375" y="0" font-family="Helvetica, Segoe UI Emoji" font-size="16px" fill="#1e1e1e" text-anchor="middle" style="white-space: pre;" direction="ltr" dominant-baseline="text-before-edge">clean up and close </text><text x="68.9375" y="18.4" font-family="Helvetica, Segoe UI Emoji" font-size="16px" fill="#1e1e1e" text-anchor="middle" style="white-space: pre;" direction="ltr" dominant-baseline="text-before-edge">service</text></g><g mask="url(#mask-Cu2yhwrknM9glXaBOkjB3)" stroke-linecap="round"><g transform="translate(711.5151977539062 983.2541207908498) rotate(0 -118.521484375 90.66823014102351)"><path d="M0.73 -0.13 C-38.93 30.16, -197.94 150.89, -237.44 180.96 M-0.35 -1.24 C-40.25 29.29, -199.21 151.92, -238.59 182.3" stroke="#1e1e1e" stroke-width="2" fill="none"></path></g><g transform="translate(711.5151977539062 983.2541207908498) rotate(0 -118.521484375 90.66823014102351)"><path d="M-222.54 156.95 C-228.46 165.14, -234.41 175.81, -238.59 182.3 M-222.54 156.95 C-225.98 161.66, -229.4 168.25, -238.59 182.3" stroke="#1e1e1e" stroke-width="2" fill="none"></path></g><g transform="translate(711.5151977539062 983.2541207908498) rotate(0 -118.521484375 90.66823014102351)"><path d="M-210 173.2 C-220.14 175.86, -230.42 180.93, -238.59 182.3 M-210 173.2 C-216.07 174.47, -222.12 177.63, -238.59 182.3" stroke="#1e1e1e" stroke-width="2" fill="none"></path></g></g><mask id="mask-Cu2yhwrknM9glXaBOkjB3"><rect x="0" y="0" fill="#fff" width="1048.5581665039062" height="1264.5905810728968"></rect><rect x="574.3179321289062" y="1064.7223509318733" fill="#000" width="37.3515625" height="18.4" opacity="1"></rect></mask><g transform="translate(574.3179321289062 1064.7223509318733) rotate(0 18.265202953852736 9.0582769308985)"><text x="18.67578125" y="0" font-family="Helvetica, Segoe UI Emoji" font-size="16px" fill="#1e1e1e" text-anchor="middle" style="white-space: pre;" direction="ltr" dominant-baseline="text-before-edge">close</text></g><g stroke-linecap="round"><g transform="translate(810.8645629882812 928.20654296875) rotate(0 0.56298828125 14.254791259765625)"><path d="M0.05 -0.5 C0.18 4.3, 1.01 23.47, 1.11 28.34 M-0.59 0.44 C-0.56 5.34, 0.29 24.4, 0.67 28.95" stroke="#1e1e1e" stroke-width="1" fill="none"></path></g><g transform="translate(810.8645629882812 928.20654296875) rotate(0 0.56298828125 14.254791259765625)"><path d="M-5 15.86 C-3.67 20.53, -1.21 24.58, 0.67 28.95 M-5 15.86 C-2.98 20.62, -0.98 24.74, 0.67 28.95" stroke="#1e1e1e" stroke-width="1" fill="none"></path></g><g transform="translate(810.8645629882812 928.20654296875) rotate(0 0.56298828125 14.254791259765625)"><path d="M4.74 15.28 C2.58 20.16, 1.55 24.42, 0.67 28.95 M4.74 15.28 C3.49 20.2, 2.21 24.5, 0.67 28.95" stroke="#1e1e1e" stroke-width="1" fill="none"></path></g></g><mask></mask><g transform="translate(39.932342529296875 1239.2779846191406) rotate(0 346.8515625 9.200000000000045)"><text x="0" y="0" font-family="Helvetica, Segoe UI Emoji" font-size="16px" fill="#1e1e1e" text-anchor="start" style="white-space: pre;" direction="ltr" dominant-baseline="text-before-edge">- If Defered static generation is applied, then keep page-creating service working otherwise close. </text></g><g stroke-linecap="round" transform="translate(325.0210876464844 1026.0554504394531) rotate(0 70.56112670898438 25)"><path d="M12.5 0 C51.51 0.66, 90.08 0.25, 128.62 0 M12.5 0 C45.58 0.66, 77.22 -0.42, 128.62 0 M128.62 0 C135.16 -0.7, 141.17 3.56, 141.12 12.5 M128.62 0 C138.62 1.94, 138.98 2.33, 141.12 12.5 M141.12 12.5 C142.29 22.03, 142.67 29.46, 141.12 37.5 M141.12 12.5 C142.31 21.87, 141.64 30.69, 141.12 37.5 M141.12 37.5 C139.51 45.1, 135.68 51.41, 128.62 50 M141.12 37.5 C142.97 47.87, 136.73 50.77, 128.62 50 M128.62 50 C88.43 47.7, 51.8 50.22, 12.5 50 M128.62 50 C94.22 48.77, 59.61 49.75, 12.5 50 M12.5 50 C4.56 50.3, -1.09 45.08, 0 37.5 M12.5 50 C2.34 50.08, -1.05 45.49, 0 37.5 M0 37.5 C-1.15 27.66, 1.27 18.14, 0 12.5 M0 37.5 C0.13 29.54, -0.94 21.69, 0 12.5 M0 12.5 C-0.64 4.29, 5.65 -0.72, 12.5 0 M0 12.5 C-0.88 3.87, 5 1.89, 12.5 0" stroke="#1e1e1e" stroke-width="2" fill="none"></path></g><g transform="translate(335.10565185546875 1032.655450439453) rotate(0 60.4765625 18.399999999999977)"><text x="60.4765625" y="0" font-family="Helvetica, Segoe UI Emoji" font-size="16px" fill="#1e1e1e" text-anchor="middle" style="white-space: pre;" direction="ltr" dominant-baseline="text-before-edge">inject routes into </text><text x="60.4765625" y="18.4" font-family="Helvetica, Segoe UI Emoji" font-size="16px" fill="#1e1e1e" text-anchor="middle" style="white-space: pre;" direction="ltr" dominant-baseline="text-before-edge">code</text></g><g stroke-linecap="round"><g transform="translate(396.3398132324219 1080.2866516113281) rotate(0 0 8.394195556640625)"><path d="M-0.18 0.31 C-0.2 3.08, 0.11 13.71, 0.18 16.37 M0.73 0 C0.63 2.85, -0.05 14.08, -0.17 16.85" stroke="#1e1e1e" stroke-width="2" fill="none"></path></g><g transform="translate(396.3398132324219 1080.2866516113281) rotate(0 0 8.394195556640625)"><path d="M-2.62 8.83 C-1.52 11.83, -1.2 14.75, -0.17 16.85 M-2.62 8.83 C-2.05 10.45, -1.58 12.07, -0.17 16.85" stroke="#1e1e1e" stroke-width="2" fill="none"></path></g><g transform="translate(396.3398132324219 1080.2866516113281) rotate(0 0 8.394195556640625)"><path d="M3.11 9.13 C2.16 12.02, 0.43 14.82, -0.17 16.85 M3.11 9.13 C2.48 10.67, 1.74 12.23, -0.17 16.85" stroke="#1e1e1e" stroke-width="2" fill="none"></path></g></g><mask></mask><g stroke-linecap="round" transform="translate(315.2924621221491 367.7641159584342) rotate(0 70.56112670898438 25)"><path d="M12.5 0 C40.65 2.79, 68.9 0.35, 128.62 0 M12.5 0 C47.87 0.04, 85.29 0.9, 128.62 0 M128.62 0 C136.41 -0.49, 139.16 2.76, 141.12 12.5 M128.62 0 C135.29 -0.74, 142.96 2.98, 141.12 12.5 M141.12 12.5 C142.54 18.76, 141.63 26.8, 141.12 37.5 M141.12 12.5 C140.55 21.69, 141.64 28.76, 141.12 37.5 M141.12 37.5 C140.01 46.09, 138.24 50.48, 128.62 50 M141.12 37.5 C142.28 45.66, 135.32 51.23, 128.62 50 M128.62 50 C84.97 49.27, 38.81 49.08, 12.5 50 M128.62 50 C94.82 48.85, 62.83 49.19, 12.5 50 M12.5 50 C5.98 49.02, -0.34 44.73, 0 37.5 M12.5 50 C6.24 50.37, -0.92 48.1, 0 37.5 M0 37.5 C1.7 31.04, -1.94 25.55, 0 12.5 M0 37.5 C0.67 28.19, -0.2 20.77, 0 12.5 M0 12.5 C-1.83 4.71, 5.22 0.82, 12.5 0 M0 12.5 C1.07 2.77, 3.88 1.74, 12.5 0" stroke="#1e1e1e" stroke-width="2" fill="none"></path></g><g transform="translate(325.3770263311335 374.36411595843424) rotate(0 60.4765625 18.400000000000006)"><text x="60.4765625" y="0" font-family="Helvetica, Segoe UI Emoji" font-size="16px" fill="#1e1e1e" text-anchor="middle" style="white-space: pre;" direction="ltr" dominant-baseline="text-before-edge">inject routes into </text><text x="60.4765625" y="18.4" font-family="Helvetica, Segoe UI Emoji" font-size="16px" fill="#1e1e1e" text-anchor="middle" style="white-space: pre;" direction="ltr" dominant-baseline="text-before-edge">code</text></g><g stroke-linecap="round"><g transform="translate(386.82272975018964 346.4149706730439) rotate(0 -0.30563927874538876 13.292145144253055)"><path d="M0.03 -0.09 C-0.06 4.44, -0.91 22.61, -1.01 27.08 M-0.62 -0.61 C-0.5 3.78, 0.07 21.7, 0.02 26.36" stroke="#1e1e1e" stroke-width="1" fill="none"></path></g><g transform="translate(386.82272975018964 346.4149706730439) rotate(0 -0.30563927874538876 13.292145144253055)"><path d="M-4.69 13.93 C-3.81 16.08, -2.11 19.24, 0.02 26.36 M-4.69 13.93 C-2.93 17.55, -1.72 21.71, 0.02 26.36" stroke="#1e1e1e" stroke-width="1" fill="none"></path></g><g transform="translate(386.82272975018964 346.4149706730439) rotate(0 -0.30563927874538876 13.292145144253055)"><path d="M4.4 13.81 C3.36 15.99, 3.13 19.17, 0.02 26.36 M4.4 13.81 C3.26 17.5, 1.57 21.7, 0.02 26.36" stroke="#1e1e1e" stroke-width="1" fill="none"></path></g></g><mask></mask><g stroke-linecap="round"><g transform="translate(385.28398165767544 418.8855085960719) rotate(0 0.18696301445447716 8.55429326219695)"><path d="M0 0 C0.06 2.85, 0.31 14.26, 0.37 17.11 M0 0 C0.06 2.85, 0.31 14.26, 0.37 17.11" stroke="#1e1e1e" stroke-width="1" fill="none"></path></g><g transform="translate(385.28398165767544 418.8855085960719) rotate(0 0.18696301445447716 8.55429326219695)"><path d="M-2.73 9.13 C-1.74 11.68, -0.75 14.22, 0.37 17.11 M-2.73 9.13 C-1.98 11.06, -1.23 12.99, 0.37 17.11" stroke="#1e1e1e" stroke-width="1" fill="none"></path></g><g transform="translate(385.28398165767544 418.8855085960719) rotate(0 0.18696301445447716 8.55429326219695)"><path d="M3.12 9.01 C2.25 11.59, 1.37 14.18, 0.37 17.11 M3.12 9.01 C2.46 10.97, 1.79 12.93, 0.37 17.11" stroke="#1e1e1e" stroke-width="1" fill="none"></path></g></g><mask></mask><g transform="translate(40.090057373046875 1274.7890930175781) rotate(0 393.11328125 18.399999999999977)"><text x="0" y="0" font-family="Helvetica, Segoe UI Emoji" font-size="16px" fill="#1e1e1e" text-anchor="start" style="white-space: pre;" direction="ltr" dominant-baseline="text-before-edge">- Routes are generated automatically by injecting routes configuration into codes in both client and server side. </text><text x="0" y="18.4" font-family="Helvetica, Segoe UI Emoji" font-size="16px" fill="#1e1e1e" text-anchor="start" style="white-space: pre;" direction="ltr" dominant-baseline="text-before-edge">  Those routes configuration is created based on the structure of page directory and create page API. </text></g><g transform="translate(39.090057373046875 1330.7890930175781) rotate(0 338.87890625 27.600000000000023)"><text x="0" y="0" font-family="Helvetica, Segoe UI Emoji" font-size="16px" fill="#1e1e1e" text-anchor="start" style="white-space: pre;" direction="ltr" dominant-baseline="text-before-edge">- The App gloabl file will be created in build time based on configuation about routes and others </text><text x="0" y="18.4" font-family="Helvetica, Segoe UI Emoji" font-size="16px" fill="#1e1e1e" text-anchor="start" style="white-space: pre;" direction="ltr" dominant-baseline="text-before-edge">  like browse.js and ssr.js.</text><text x="0" y="36.8" font-family="Helvetica, Segoe UI Emoji" font-size="16px" fill="#1e1e1e" text-anchor="start" style="white-space: pre;" direction="ltr" dominant-baseline="text-before-edge"></text></g><g stroke-linecap="round" transform="translate(12.960141386948806 1437.7887259936206) rotate(0 485.9205060934072 167.87966233630118)"><path d="M32 0 C270.24 0, 508.48 0, 939.84 0 M939.84 0 C961.17 0, 971.84 10.67, 971.84 32 M971.84 32 C971.84 138.69, 971.84 245.37, 971.84 303.76 M971.84 303.76 C971.84 325.09, 961.17 335.76, 939.84 335.76 M939.84 335.76 C585.91 335.76, 231.97 335.76, 32 335.76 M32 335.76 C10.67 335.76, 0 325.09, 0 303.76 M0 303.76 C0 246.05, 0 188.34, 0 32 M0 32 C0 10.67, 10.67 0, 32 0" stroke="#1e1e1e" stroke-width="1.5" fill="none" stroke-dasharray="8 9"></path></g><g transform="translate(44.01218903282114 1466.3129336325997) rotate(0 223.20703125000003 27.600000000000023)"><text x="0" y="0" font-family="Helvetica, Segoe UI Emoji" font-size="16px" fill="#1e1e1e" text-anchor="start" style="white-space: pre;" direction="ltr" dominant-baseline="text-before-edge">Gatsby runtime key features</text><text x="0" y="18.4" font-family="Helvetica, Segoe UI Emoji" font-size="16px" fill="#1e1e1e" text-anchor="start" style="white-space: pre;" direction="ltr" dominant-baseline="text-before-edge"></text><text x="0" y="36.8" font-family="Helvetica, Segoe UI Emoji" font-size="16px" fill="#1e1e1e" text-anchor="start" style="white-space: pre;" direction="ltr" dominant-baseline="text-before-edge">- Gatsby is html-prerendered at the build time contrast to SSR. </text></g><g transform="translate(43.86215906991379 1537.9109909243416) rotate(0 403.77734375 64.39999999999998)"><text x="0" y="0" font-family="Helvetica, Segoe UI Emoji" font-size="16px" fill="#1e1e1e" text-anchor="start" style="white-space: pre;" direction="ltr" dominant-baseline="text-before-edge">- Code is splitted up each page, same as data, so there is a corresponding JS file and JSON file for each page. </text><text x="0" y="18.4" font-family="Helvetica, Segoe UI Emoji" font-size="16px" fill="#1e1e1e" text-anchor="start" style="white-space: pre;" direction="ltr" dominant-baseline="text-before-edge"></text><text x="0" y="36.8" font-family="Helvetica, Segoe UI Emoji" font-size="16px" fill="#1e1e1e" text-anchor="start" style="white-space: pre;" direction="ltr" dominant-baseline="text-before-edge">- Link built-in component has the preloading feature, it will automatically download when it enters into viewpoint or </text><text x="0" y="55.199999999999996" font-family="Helvetica, Segoe UI Emoji" font-size="16px" fill="#1e1e1e" text-anchor="start" style="white-space: pre;" direction="ltr" dominant-baseline="text-before-edge">  is hovered over.</text><text x="0" y="73.6" font-family="Helvetica, Segoe UI Emoji" font-size="16px" fill="#1e1e1e" text-anchor="start" style="white-space: pre;" direction="ltr" dominant-baseline="text-before-edge"></text><text x="0" y="92" font-family="Helvetica, Segoe UI Emoji" font-size="16px" fill="#1e1e1e" text-anchor="start" style="white-space: pre;" direction="ltr" dominant-baseline="text-before-edge">- Once Json Data is loaded Successfully, then they will be put into Redux, Page component or normal component </text><text x="0" y="110.39999999999999" font-family="Helvetica, Segoe UI Emoji" font-size="16px" fill="#1e1e1e" text-anchor="start" style="white-space: pre;" direction="ltr" dominant-baseline="text-before-edge">  would access thenm through Redux.</text></g><g transform="translate(41.46560352396875 1699.437601507724) rotate(0 395.60546874999994 27.600000000000023)"><text x="0" y="0" font-family="Helvetica, Segoe UI Emoji" font-size="16px" fill="#1e1e1e" text-anchor="start" style="white-space: pre;" direction="ltr" dominant-baseline="text-before-edge">- Gatsby support hybrid app pages which is capable of generating content at build time as well as making calls </text><text x="0" y="18.4" font-family="Helvetica, Segoe UI Emoji" font-size="16px" fill="#1e1e1e" text-anchor="start" style="white-space: pre;" direction="ltr" dominant-baseline="text-before-edge">  to external services at runtime. As well, it offers multiple rendering mode options for each page involving SSG, </text><text x="0" y="36.8" font-family="Helvetica, Segoe UI Emoji" font-size="16px" fill="#1e1e1e" text-anchor="start" style="white-space: pre;" direction="ltr" dominant-baseline="text-before-edge">  DSG, SSR. </text></g><g stroke-linecap="round" transform="translate(307.71602168811444 936.8107625348191) rotate(0 88.79432624535053 37.750313983747105)"><path d="M18.88 0 C73.52 0.59, 126.14 -0.71, 158.71 0 M18.88 0 C64.81 1.68, 112.39 -0.27, 158.71 0 M158.71 0 C171.87 -1.16, 176.66 6.76, 177.59 18.88 M158.71 0 C172.22 -0.75, 179.39 8.19, 177.59 18.88 M177.59 18.88 C178.7 28.65, 179.27 39.25, 177.59 56.63 M177.59 18.88 C177.88 32.85, 177.16 46.27, 177.59 56.63 M177.59 56.63 C177.38 70.7, 172.06 73.58, 158.71 75.5 M177.59 56.63 C178.93 67.38, 169.15 74.55, 158.71 75.5 M158.71 75.5 C110.22 75.01, 65.97 77.22, 18.88 75.5 M158.71 75.5 C124.46 76.38, 88.93 75.84, 18.88 75.5 M18.88 75.5 C7.4 73.61, -1.63 71.06, 0 56.63 M18.88 75.5 C5.68 76.57, 0.89 68.75, 0 56.63 M0 56.63 C-1.09 49.83, 0.82 41.34, 0 18.88 M0 56.63 C0.62 49.81, 0.56 41.83, 0 18.88 M0 18.88 C-1.29 4.51, 7.04 1.77, 18.88 0 M0 18.88 C-1.71 5.15, 5.79 0.97, 18.88 0" stroke="#1e1e1e" stroke-width="2" fill="none"></path></g><g transform="translate(314.014254183465 946.9610765185662) rotate(0 82.49609375 27.600000000000023)"><text x="82.49609375" y="0" font-family="Helvetica, Segoe UI Emoji" font-size="16px" fill="#1e1e1e" text-anchor="middle" style="white-space: pre;" direction="ltr" dominant-baseline="text-before-edge">graphql requst code -&gt; </text><text x="82.49609375" y="18.4" font-family="Helvetica, Segoe UI Emoji" font-size="16px" fill="#1e1e1e" text-anchor="middle" style="white-space: pre;" direction="ltr" dominant-baseline="text-before-edge">the code of requesting </text><text x="82.49609375" y="36.8" font-family="Helvetica, Segoe UI Emoji" font-size="16px" fill="#1e1e1e" text-anchor="middle" style="white-space: pre;" direction="ltr" dominant-baseline="text-before-edge">JSON file</text></g><g stroke-linecap="round"><g transform="translate(392.9216367500459 1009.3189955804037) rotate(0 -0.30563927874538876 13.292145144253027)"><path d="M-0.08 0.19 C-0.17 4.66, -0.07 21.82, -0.22 26.31 M-0.79 -0.19 C-0.94 4.4, -0.6 22.45, -0.45 26.87" stroke="#1e1e1e" stroke-width="1" fill="none"></path></g><g transform="translate(392.9216367500459 1009.3189955804037) rotate(0 -0.30563927874538876 13.292145144253027)"><path d="M-5.3 14.49 C-3.44 19.29, -2.3 22.65, -0.45 26.87 M-5.3 14.49 C-3.26 19.26, -1.58 24.48, -0.45 26.87" stroke="#1e1e1e" stroke-width="1" fill="none"></path></g><g transform="translate(392.9216367500459 1009.3189955804037) rotate(0 -0.30563927874538876 13.292145144253027)"><path d="M3.8 14.27 C2.47 19.15, 0.43 22.58, -0.45 26.87 M3.8 14.27 C2.2 19.09, 0.26 24.39, -0.45 26.87" stroke="#1e1e1e" stroke-width="1" fill="none"></path></g></g><mask></mask></svg>